# xmcd
#
# Track frame offsets:
#	150
#	14194
#	28692
#	49609
#	70914
#	85999
#	101063
#	117457
#	140184
#	155640
#	171338
#	189009
#	205086
#
# Disc length: 2914 seconds
# Revision: 0
# Processed by: cddbd v1.5.2PL0 Copyright (c) Steve Scherf et al.
# Submitted via: dBpowerAMP V12.0
#
DISCID=bc0b600d
DTITLE=Big Papa and The TCB - Six Pack Of Cool
DYEAR=2013
DGENRE=Blues
TTITLE0=Papas In Da House 
TTITLE1=A Thin Line Between Love And Hate 
TTITLE2=Big Bad Blues 
TTITLE3=200 LBS Of Trouble 
TTITLE4=Drink Drank Drunk 
TTITLE5=Baby's Got A New Friend 
TTITLE6=A Lil' Bit O' Somethin' 
TTITLE7=Murder In The 1st Degree 
TTITLE8=The More Things Change 
TTITLE9=Wait Till Yo Daddy Getz Home 
TTITLE10=Crazy 'Bout The Girl 
TTITLE11=Showtime 
TTITLE12=My Way Back Home 
EXTD=
EXTT0=
EXTT1=
EXTT2=
EXTT3=
EXTT4=
EXTT5=
EXTT6=
EXTT7=
EXTT8=
EXTT9=
EXTT10=
EXTT11=
EXTT12=
PLAYORDER=
